<svg width="100" height="100" viewBox="0 0 100 100" fill="none" xmlns="http://www.w3.org/2000/svg">
<rect width="100" height="100" rx="50" fill="#D736D0"/>
<g filter="url(#filter0_d_1_2)">
<path d="M24.9125 37.76V34.357H32.6205V64H28.8485V37.76H24.9125ZM38.0453 37.76V34.357H45.7533V64H41.9813V37.76H38.0453ZM68.6851 41.409C68.0838 38.375 66.2115 36.858 63.0681 36.858C60.6355 36.858 58.8178 37.801 57.6151 39.687C56.4125 41.5457 55.8248 44.6207 55.8521 48.912C56.4808 47.4907 57.5195 46.3837 58.9681 45.591C60.4441 44.771 62.0841 44.361 63.8881 44.361C66.7035 44.361 68.9448 45.2357 70.6121 46.985C72.3068 48.7343 73.1541 51.1533 73.1541 54.242C73.1541 56.1007 72.7851 57.768 72.0471 59.244C71.3365 60.72 70.2431 61.8953 68.7671 62.77C67.3185 63.6447 65.5555 64.082 63.4781 64.082C60.6628 64.082 58.4625 63.4533 56.8771 62.196C55.2918 60.9387 54.1848 59.203 53.5561 56.989C52.9275 54.775 52.6131 52.0417 52.6131 48.789C52.6131 38.7577 56.1118 33.742 63.1091 33.742C65.7878 33.742 67.8925 34.4663 69.4231 35.915C70.9538 37.3637 71.8558 39.195 72.1291 41.409H68.6851ZM63.1091 47.518C61.9338 47.518 60.8268 47.764 59.7881 48.256C58.7495 48.7207 57.9021 49.445 57.2461 50.429C56.6175 51.3857 56.3031 52.561 56.3031 53.955C56.3031 56.0323 56.9045 57.727 58.1071 59.039C59.3098 60.3237 61.0318 60.966 63.2731 60.966C65.1865 60.966 66.7035 60.3783 67.8241 59.203C68.9721 58.0003 69.5461 56.3877 69.5461 54.365C69.5461 52.233 68.9995 50.5657 67.9061 49.363C66.8128 48.133 65.2138 47.518 63.1091 47.518Z" fill="white"/>
</g>
<defs>
<filter id="filter0_d_1_2" x="20.9125" y="33.742" width="56.2416" height="38.34" filterUnits="userSpaceOnUse" color-interpolation-filters="sRGB">
<feFlood flood-opacity="0" result="BackgroundImageFix"/>
<feColorMatrix in="SourceAlpha" type="matrix" values="0 0 0 0 0 0 0 0 0 0 0 0 0 0 0 0 0 0 127 0" result="hardAlpha"/>
<feOffset dy="4"/>
<feGaussianBlur stdDeviation="2"/>
<feComposite in2="hardAlpha" operator="out"/>
<feColorMatrix type="matrix" values="0 0 0 0 0 0 0 0 0 0 0 0 0 0 0 0 0 0 0.25 0"/>
<feBlend mode="normal" in2="BackgroundImageFix" result="effect1_dropShadow_1_2"/>
<feBlend mode="normal" in="SourceGraphic" in2="effect1_dropShadow_1_2" result="shape"/>
</filter>
</defs>
</svg>
